<svg xmlns="http://www.w3.org/2000/svg" version="1.1" viewBox="0 -0 100 100">
 <path d="m22.617 27.156c-2.168 0.95703-3.8672 1.8555-3.8047 1.9961 0.0625 0.14453 1.8672-0.49609 4.0938-1.2617 8.6367-2.9961 12.328-3.75 12.754-4.2891 0.43359 0.56641 0.75391 0.83594 0.78125 0.8125 0.074219-0.058593-0.55859-0.82422-1.207-2.25-0.64062-1.4141-1.2305-3.5508-1.0117-5.8984 0.16797-1.668 0.73438-3.7383 2.2266-4.5078 2.7148-1.4141 6.625 2.8867 5.7812 8.1523-0.40234 2.2773-1.7695 4.875-3.9844 4.5234-0.74219-0.125-1.0312-0.42969-1.2109-0.54297-0.17188-0.13281-0.24219-0.12109-0.3125-0.082031-0.066406 0.035156-0.12891 0.085937-0.035156 0.33984 0.63672 1.4375 4.0898 2.25 5.957-1.9297 0.79688 0.023438 8.6875-0.33984 9.4648-0.51953 0.1875-0.039063 0.30859-0.085938 0.38672-0.13672 0.40234 1.2539 0.85938 1.918 0.90234 1.8945 0.085937-0.039062-0.34375-0.9375-0.62891-2.4766-0.94141-5.1211 1.8945-11.074 5.2461-9.6602 3.3242 1.4688 4.0156 8.2656 0.33203 11.738-0.89844 0.85547-2.0625 1.3398-3.207 0.85547-0.69141-0.30078-0.89844-0.66797-1.0469-0.82031-0.13281-0.17188-0.20703-0.17578-0.28125-0.15625-0.070312 0.019531-0.14844 0.050781-0.11719 0.32031 0.30469 1.7539 3.9922 3.2773 6.7891-1.2031 3.5195 1.0234 8.4844 1.8789 16.309 6.5273 2.2734 1.332 2.9531 1.8164 3.1719 1.5117 0.089844-0.125 0.14062-0.26172-0.65625-0.94141-4.168-3.5352-12.559-7.0117-18.668-7.3359 4.0039-6.8867-1.8711-14.836-6.2539-10.48-1.8359 1.8203-3.0547 5.8242-2.0664 9.6328-1.6758-0.52734-7.1562 0.13281-9.4961 0.82812 0.80078-2.0898 0.80859-4.3125 0.17969-6.3398-1.5156-4.8867-6.3164-6.7148-8.5312-3.0469-1.4961 2.4688-1.5469 7.2148 0.89844 10.785-1.1719-0.082031-5.1133 1.1172-6.2305 1.4688-1.7188 0.53516-4.3594 1.5273-6.5234 2.4922z"/>
 <path d="m20.145 55.75c0.55078 12.594 0.49219 15.832 1.0078 15.824 0.15234 0 0.29297-0.085938 0.36328-2.1094 0.054687-2.0234 0.082031-5.9961-0.25781-13.766-0.57812-13.305-2.2578-26.699-2.5078-26.676-0.25391 0.027343 0.65625 9.7383 1.3945 26.727z"/>
 <path d="m42.051 66.055c-0.55469 1.4375-1.0195 6.6367-1.0352 8.5781-0.53516 0.10156-1.0508 0.30859-1.4922 0.625-0.15625 0.11328-0.78906 0.44141-1.1094 0.73828-0.5 0.1875-0.71484 0.61719-0.61328 1.0391-1.0039 0.25391-1.5508 1.1758-1.4141 1.8164-0.53516 0.26953-0.87109 0.64063-1.0234 0.96875-0.10156 0.22266-0.11328 0.38672-0.074219 0.44922-0.70312 0.39062-0.84766 0.95312-0.72656 1.0273 0.13281 0.074219 0.51562-0.27734 1.082-0.33984 1.2227-0.21484 2.5039 0.77734 3.0234 0.84375 0.25391 0.046875 0.33984-0.0625 0.42578-0.19141s0.15625-0.25 0.007812-0.46875c-0.43359-0.55859-1.4883-1.168-2.5-1.1875-0.29687-0.007813-0.60156 0.039063-0.88672 0.12891 2.1719-1.5273 4.4258 0.8125 4.8789-0.10547 0.066406-0.13672 0.12109-0.26562-0.089844-0.48437-0.78516-0.70313-2.2852-1.2031-3.5352-0.86719 0.0625-0.078125 0.14062-0.15625 0.23438-0.22266 0.37109-0.29297 0.73828-0.35938 1.2031-0.33203 0.99609 0.082032 1.3242 0.42578 1.5898-0.058593 0.074218-0.13281 0.13672-0.26172-0.019532-0.45312-0.30859-0.375-1.082-0.60156-1.625-0.60156 0.019532-0.078125 0.078126-0.18359 0.15625-0.21484 0.39844-0.19531 0.94141 0.21484 1.418 0.45703 1.0742 0.54688 2.5977 0.16797 3.3789-0.99219 0.097656 0.058594 0.26172 0.15234 0.39062 0.22656 0.95313 0.57031 1.8594 1.4102 1.832 2.5117 0 0.57813-0.39062 1.2617-0.96875 1.9883-1.5234 1.957-3.125 3.7578-5.1719 5.1562-2.207-6.0625-7.5547-5.9336-9.2266-2.0234-0.44922 1.0547-0.55469 2.3203-0.23828 3.4922 0.23438 0.74219 0.39844 0.75781 0.53516 0.72656-0.039062 0.066406-0.085937 0.20312-0.074219 0.42578 0.066407 1.8867 4.7539 4.1523 9.6758 0.85547 2.4531-1.6172 6.9453-6.1133 7.4336-8.7852 0.28516-1.5312-0.5625-2.5625-0.88281-2.293 0 0 0 0.003907-0.003906 0.003907-0.28516-2.0156-2.1758-2.9297-3.8164-3.7461-0.011718 0.03125-0.023437 0.058594-0.035156 0.085937-0.3125-0.28125-0.80859-0.28516-1.1953-0.26953 0.41406-1.5977 1.5117-7.3945 1.2148-8.6094 5.6875-0.73047 11.375-0.84375 16.129-0.49219-0.11328 2.2812 0.125 5.7734 0.76953 8.2539-0.48047 0.13281-1.1328 0.39453-1.3359 0.84766-0.019532-0.019531-0.039063-0.039062-0.058594-0.0625-0.67578 0.77344-1.3398 1.4805-1.7969 2.3828-0.35938 0.72266-0.63281 1.6797-0.36719 2.6992-0.41797-0.17578-0.83984 1.1719 0.042969 2.5273 1.0664 1.6602 4.2617 3.25 6.0781 4.0234 3.1953 1.3516 6.7266 2.4141 9.9492 1.1289 1.668-0.62891 2.8906-1.8086 3.375-2.8906 0.23438-0.54297 0.25781-1.0625 0.13672-1.3828-0.074218-0.21875-0.17187-0.33203-0.23437-0.38281 0.13672-0.023438 0.28906-0.10156 0.21484-0.90625-0.48438-3.6875-4.25-5.6836-6.9297-4.1094-2.1523 1.2617-2.8125 3.9648-2.7188 6.4453-2.5273-0.53125-4.7812-1.6367-7.0156-2.9102-0.84375-0.46875-1.4922-0.97266-1.7266-1.5391-0.3125-0.71094-0.14453-1.5664 0.18359-2.2188 0.26172-0.53125 0.57031-0.91406 0.88672-1.3242 0.97656 0.73047 2.7227 0.67969 3.6289-0.36719 0.34766-0.40625 0.73438-1.0391 1.1992-0.99609 0.09375 0 0.20312 0.09375 0.24609 0.16016 0.003906 0.003906 0.003906 0.007812 0.007812 0.011718-0.53125 0.21094-1.1797 0.73828-1.3359 1.2148-0.078124 0.24219 0.03125 0.33594 0.14844 0.43359 0.12109 0.097656 0.23438 0.17188 0.44141 0.085938 0.38672-0.12891 1.543-1.4023 2.7461-0.67578-0.55859 0.066406-1.1016 0.25391-1.6875 0.66797-0.98047 0.75391-1.2617 1.2773-1.3984 1.5547-0.12109 0.28906-0.019531 0.38672 0.09375 0.48828 0.78125 0.6875 2.0234-2.5039 4.8047-1.8125-0.72266 0.039062-1.3672 0.35547-1.8906 0.84766-0.76172 0.76562-0.93359 1.2461-1.0078 1.5039-0.058593 0.26562 0.050782 0.35156 0.17969 0.4375 0.12891 0.085938 0.25 0.15625 0.47266 0.007813 0.47656-0.27734 1.3086-1.7422 2.5781-2.0078 0.57422-0.16016 1.0781 0.035156 1.1719-0.085937 0.085938-0.11328-0.28516-0.59766-1.1055-0.6875 0.054687-0.19141-0.49609-0.85156-1.6133-0.92969-0.11719-0.66406-0.99609-1.3398-2.0742-1.1797-0.054688-0.41016-0.39453-0.76953-0.95703-0.76562-0.41406-0.17188-1.1914-0.23828-1.3906-0.28516-0.30859-0.074218-0.625-0.09375-0.94141-0.089843-0.066406-0.49219-1.0234-6.8594-1.2812-8.082 3.332 0.24219 8.0781 0.83203 11.117 1.5391 4.7578 0.98828 7.4219 1.8789 8.6602 2.1055 0.054687 0.59375 0.14844 0.63672 0.25391 0.64062 0.10156 0.003906 0.19922-0.027344 0.30859-0.59766 0.10547-0.023438 0.16797-0.14063 0.042969-0.25391 0.42969-2.7656 0.47656-9.3203 0.47266-12.117 1.0078 1.4414 2.9336 1.4414 3.7852 0.078125 0.80078-1.3047-0.26172-2.7031-0.61719-2.3516-0.20312 0.19922 0.097657 0.40625 0.097657 1.0977-0.042969 1.3516-1.793 1.7695-2.4805 0.375-0.28516-0.5625-0.26562-1.4531 0.19531-2.3008 1.1328-2.2422 5.4609-4.4531 2.9023-8.5273-0.95312-1.5391-2.5039-2.3594-4.1211-3.2578-0.13281-7.9336 0-11.738-0.16406-11.746-0.125-0.007812-0.51562 3.6484-0.65625 9.4648-0.13672 5.2383-0.082031 11.461-0.0625 15.41 0.0625 7.8125-0.058594 11.715 0.011719 13.527-2.418-1.0625-5.8516-1.9648-8.4102-2.5547-5.9023-1.4844-15.398-2.3203-23.578-1.5586-6.9961 0.61719-12.477 1.9492-18.797 3.9922-1.4258 0.53906-0.60937 0.22656-3.0898 1.1758-0.71094 0.28516-3.8477 1.6758-3.8047 1.7773 0.12891 0.33203 7.875-3.6133 20.594-5.3555zm4.5742 13.07c0.23047 1.0078-0.078125 1.8789-0.66016 2.7812-1.582 2.4844-4.5977 5.4883-6.4805 6.8203-3.2188 2.3047-6.4922 2.1055-8.1875 0.85547-0.78516-0.60156-0.73438-1.1719-0.77344-1.3086 0.35547-0.13281 0.03125-1.0273 0.25391-2.4961 0.58203-3.3047 3.7539-4.625 6.3672-2.082 0.89453 0.85938 1.4883 1.8711 1.9883 2.5742-2.1055 1.375-4.3711 1.9609-6.2383 1.918-1.3086-0.023438-2.1055-0.28906-2.1328-0.19922-0.023438 0.054688 0.73438 0.46875 2.1016 0.63281 1.3594 0.16797 3.3125-0.023438 5.25-0.86719 2.9336-1.2461 5.3125-3.668 7.2969-6.1367 0.57422-0.70703 1.1445-1.5508 1.2148-2.4922zm11.848 2.9609c2.8633 1.5781 6.1016 2.9727 9.418 3.0156 2.1914 0.046876 4.1406-0.53516 5.3789-1.2305 1.25-0.69531 1.8164-1.3906 1.7734-1.4297-0.058594-0.074218-0.71875 0.49609-1.9648 1.0391-1.7422 0.76953-4.1523 1.125-6.7617 0.62891 0.19922-0.86719 0.36719-2.0898 0.89062-3.2734 1.5078-3.5 5.1133-3.457 6.9648-0.51563 0.78125 1.3086 0.83594 2.3125 1.2148 2.3047 0.007812 0.066406 0.066406 0.20312 0.085937 0.42188 0.19141 1.6641-3.1328 4.832-8.5195 3.5664-2.3477-0.53516-6.4297-2.2383-8.9219-3.9961-1.2227-0.85547-1.6367-1.6641-1.7461-2.5234 0.42188 0.91406 1.3281 1.5234 2.1875 1.9922zm24.969-36.496c1.9414 3.5625-1.8242 4.9844-3.2305 7.6523-0.042969-3.1484-0.14063-7.1641-0.20703-10.957 1.1172 0.92969 2.6172 1.7656 3.4375 3.3047z"/>
 <path d="m21.441 37.742c8.75-2.6758 16.016-5.1523 25.121-6.0391 18.145-1.8164 32.105 7.0547 32.531 6.2188 0.39453-0.76172-15.809-9.1602-32.641-7.2422-7.7109 0.85547-14.906 3.0742-22.168 5.7344-2.6875 0.99609-5.6094 2.1328-2.8438 1.3281z"/>
 <path d="m24.777 33.66c0.68359 0.32031 1.5195 0.12891 2.043-0.37891 0.65234-0.60156 0.71484-1.668 0.019532-2.3789-0.73438-0.73438-1.6445-0.55078-1.6367-0.20312-1.5898 0.039062-1.8438 2.2734-0.42578 2.9609zm-0.078125-1.8477c0.035156-0.28516 0.32422-0.60938 0.81641-0.67578 0.23438 0.125 0.39844 0.23438 0.55859 0.44531 0.16797 0.25 0.29688 0.58203-0.023438 0.89844-0.16406 0.17578-0.56641 0.34375-0.85938 0.23828-0.30078-0.074219-0.57031-0.53906-0.49219-0.90625z"/>
 <path d="m30.582 32.141c0.76562-0.42188 0.99609-1.3047 0.76953-1.9336-0.44141-1.1758-2.1211-1.3125-2.5547-0.17969-0.5 0.41406-0.57812 1.0625-0.32031 1.5273 0.39453 0.70703 1.3477 0.97656 2.1055 0.58594zm-0.27734-1.5625c0.070312 0.13281 0.007812 0.51172-0.23047 0.67188-0.16797 0.13672-0.50391 0.14453-0.73828 0.03125 0.33203-0.16406 0.15625-0.75 0.42578-0.92188 0.17188-0.10156 0.48438 0.035156 0.54297 0.21875z"/>
 <path d="m35.766 29.328c-0.26562-1.1445-1.4961-1.5977-2.2891-1.0273-0.58594 0.023438-0.95312 0.51953-1.0117 1.043-0.11328 1.0234 0.73047 1.8359 1.7148 1.8242 1.043-0.019531 1.7578-0.99609 1.5859-1.8398zm-1.7969 0.79688c0.007812-0.10547-0.03125-0.21484-0.0625-0.38672-0.019531-0.10938-0.027344-0.39062 0.11719-0.54688 0.054687-0.046875 0.11719-0.066406 0.23437-0.046875 0.078126 0.125 0.10938 0.23047 0.17969 0.074219 0.10938 0.078125 0.21484 0.19922 0.23438 0.31641 0.066406 0.13672-0.15625 0.58594-0.53516 0.60938-0.050781 0.003907-0.11328-0.011719-0.16797-0.019531z"/>
 <path d="m57.359 18.387c0.019531 0.066406 0.042969 0.15625 0.26562 0.12109 0.56641-0.082031 0.98438-1.1484 0.41406-1.8672-0.57031-0.71875-1.8945-0.8125-2.75 0.11328-1.5781 1.7539-1.0234 5.1328 1.3125 5.2539 0.83203 0.054688 1.7227-0.32031 2.3438-1.0469 1.0977-1.2891 1.3906-3.8164 0.98438-5.375-0.66797-2.7695-4.168-4.0352-5.6523-0.90625-0.45312 1.0547-0.51172 1.7422-0.45703 1.7617 0.085938 0.03125 0.30078-0.63672 0.83984-1.5586 0.27734-0.44531 0.67188-0.95312 1.2539-1.1992 0.57422-0.25781 1.3086-0.16016 1.918 0.25391 1.3672 0.88281 1.4609 2.6992 1.1445 4.2969-0.15625 0.80469-0.42969 1.5312-0.85937 2.0117-0.40625 0.46875-1.0039 0.6875-1.4414 0.65234-1.668-0.082032-1.4688-3.375-0.11719-3.8125 0.38672-0.125 0.85938-0.039063 0.97266 0.35156 0.085938 0.39453-0.0625 0.59375-0.11328 0.69141-0.070313 0.10938-0.078125 0.18359-0.058594 0.25781z"/>
 <path d="m38.23 19.008c0.023437 0.070313 0.050781 0.14844 0.25391 0.12109 0.75781-0.10938 1.0664-1.6992 0.058594-2.3164-1.1836-0.76562-3.1719 0.25391-3.0156 2.4375 0.16016 2.4883 2.1797 3.6055 4.0781 2.6484 3.4922-1.7266 1.4336-8.2812-2.1719-7.5898-1.418 0.26953-1.9336 1.6602-1.5742 2.5039 0.12109 0.28516 0.26562 0.38672 0.28906 0.36719 0.089843-0.058594-0.33984-0.64453 0.13672-1.4727 0.21875-0.39844 0.65234-0.73438 1.2383-0.78125 2.8125-0.27734 4.0078 4.9102 1.5977 5.9961-2.3477 1.1211-3.1484-2.3984-1.9961-3.168 0.49609-0.35547 1.1641-0.29297 1.2695 0.34766 0.046875 0.39063-0.085937 0.54688-0.13281 0.65625-0.058594 0.10156-0.058594 0.17578-0.03125 0.25z"/>
 <path d="m14.176 54.68c0.64453 1.168 0.30859 0.57031 0.76562 1.1602 0.76562 1.0117 2.0312 1.3125 2.7969 1.8633 2.7656 1.8945 0.98828 5.0234-0.94141 3.9141-0.60156-0.36719-0.57031-0.73438-0.85547-0.69141-0.074218 0.011719-0.14844 0.023438-0.17578 0.21875-0.011719 0.17578 0.023437 0.62109 0.5625 1.1055 1.6953 1.4453 4.1992-0.15625 3.8906-2.6875-0.13281-1.043-0.81641-2.0664-1.8477-2.7734-0.92969-0.65234-1.9727-0.83203-2.6328-1.6523-0.31641-0.39844-0.054687 0.074219-0.62891-0.87891-0.64453-1.3242-0.15234-3.0703 0.67188-4.3945 0.78906-1.3672 1.7891-2.4492 2.5-3.2305 0.72266-0.77344 1.1992-1.2383 1.1484-1.3008-0.16016-0.20312-7.1836 4.8828-5.2539 9.3477z"/>
 <path d="m75.277 30.012c0.097656-0.11719 0.17188-0.23828-0.17969-0.64453-1.293-1.3789-4.1406-2.957-7.0469-3.4961-1.4492-0.28516-2.6445-0.26562-2.6602-0.12109-0.03125 0.28125 2.6328 0.60156 6.25 2.5234 2.6172 1.3828 3.2852 2.168 3.6367 1.7383z"/>
 <path d="m70.535 29.234c-0.14844 0.26953 1.082 1.2422 1.7148 1.5938 1.1523 0.64062 1.2969 0.4375 1.4453 0.16797 0.14844-0.26953 0.24609-0.5-0.90234-1.1406-0.63281-0.35156-2.1094-0.89062-2.2578-0.62109z"/>
 <path d="m77.406 23.535c0.30469 0.03125 1.2148-4.3867 1.2344-4.4961 0.54688-2.6133 0.375-2.7148 0.0625-2.7969-0.28125-0.074219-0.59375-0.09375-1.1523 2.582-0.14844 0.73438-0.28906 1.9062-0.32031 2.8945-0.039063 0.99609 0.023437 1.8008 0.17578 1.8164z"/>
 <path d="m82.938 20.582c-0.40625-0.24219-0.625 0.078125-1.4883 1.1797-1.3906 1.8203-1.8867 2.4102-1.7617 2.5664 0.09375 0.12109 0.60938-0.10547 1.168-0.50391 0.5625-0.39062 1.1484-0.96484 1.4688-1.3711 0.58203-0.74219 0.77734-1.1953 0.82422-1.4531 0.039062-0.26172-0.078126-0.33984-0.21094-0.41797z"/>
 <path d="m84.156 24.348c-0.86719 0.54688-2.5977 1.9297-2.4336 2.1914 0.16406 0.26172 2.1602-0.70312 3.0273-1.25 1.5859-0.99609 1.4844-1.2305 1.3203-1.4883-0.16016-0.25781-0.32812-0.44922-1.9141 0.54688z"/>
 <path d="m33.434 10.586c0.64453-0.5625 0.94141-0.55078 0.82422-1.0469-0.035156-0.14844-0.066406-0.28516-0.28906-0.32812-0.20703-0.027344-0.66797 0.019531-1.2773 0.54687-0.33203 0.28516-0.70703 0.89063-0.78906 1.4492-0.097656 0.5625 0.058594 1 0.20703 0.99609 0.27344-0.003906 0.27344-0.69922 1.3242-1.6172z"/>
 <path d="m63.312 11.719c0.14453-0.054688 0.27344-0.10938 0.28906-0.33594 0.007813-0.21875-0.082031-0.64453-0.55859-1.2969-0.8125-1.1211-2.2461-1.5078-2.3594-1.2617-0.066406 0.14062 0.25 0.44141 0.57812 0.81641 1.3867 1.5195 1.4102 2.3242 2.0508 2.0781z"/>
 <path d="m72.191 79.871c-0.33203-0.13672-0.63281-0.13672-0.70312-0.003906-0.074219 0.13672 0.066407 0.36719 0.21094 0.61719 0.63281 1.0391 0.76562 1.2969 1.2852 1.0938 0.14453-0.058594 0.27344-0.10938 0.31641-0.26172 0.039063-0.14844 0.003907-0.41797-0.28516-0.81641-0.15625-0.21875-0.49219-0.49609-0.82422-0.62891z"/>
 <path d="m35.988 58.371c0.30859 0.015625 0.5625-0.082032 0.79297-5.2188 0.12891-2.8164 0.15234-8.8672-0.15234-8.8828-0.21094-0.007812-0.52344 2.8125-0.73828 5.5-1.6055 0.23438-6.2734 1.9688-7.4297 2.7031 0.24219-2.7305 0.046874-8.1953-0.30078-8.2031-0.30859-0.007812-0.66016 4.1055-0.70703 6.0273-0.085937 3.5039 0.16016 3.582 0.46875 3.5898 0.20703 0.003906 0.39062-0.027344 0.51172-1.125 0.84375 0.003906 5.1992-1.0508 7.3828-2.0078-0.0625 0.87891-0.11719 1.7031-0.14453 2.3516-0.23438 5.1328 0.007813 5.2539 0.31641 5.2656z"/>
 <path d="m65.449 57.082c0.30469 0.042969 0.56641-0.03125 1.2734-5.125 0.38672-2.793 0.96875-8.8164 0.66406-8.8594-0.20703-0.027344-0.77734 2.7539-1.2422 5.4062-1.6055 0.085938-6.4141 1.3789-7.6484 2.0078 0.49219-2.6953 0.80078-8.1562 0.45703-8.1992-0.30469-0.035156-1.0352 4.0273-1.2578 5.9375-0.41016 3.4805-0.17187 3.582 0.13281 3.6172 0.20703 0.023437 0.39062 0.007812 0.61328-1.0742 0.83594 0.082031 5.2734-0.56641 7.5352-1.3203-0.14453 0.87109-0.27344 1.6836-0.35937 2.3281-0.70313 5.0977-0.47266 5.2383-0.16797 5.2812z"/>
 <path d="m43.711 49.543c-0.046876-0.058594-0.10156-0.10938-0.33203 0.015625-1.418 0.83203-1.5547 3.8594 0.41797 5.457 1.3711 1.1055 3.707 1.1367 5.6055-0.23828 5.293-3.7031 1.6953-15.18-3.9062-12.641-3.9961 1.875-3.043 7.8477-2.9727 7.8516 0.21094 0.011719 0.015624-2.9688 1.082-5.0273 1.0703-2.0742 3.4609-3.1406 5.2109-1.5586 2.8672 2.457 3.2188 10.094-1.6953 11.242-1.0859 0.26953-2.0938 0.023438-2.6992-0.4375-0.95312-0.71484-1.3867-2-1.2266-3.0781 0.17188-1.125 0.72266-1.332 0.51563-1.5859z"/>
</svg>
