<?xml version="1.0" encoding="UTF-8"?>
<svg id="Layer_1" xmlns="http://www.w3.org/2000/svg" viewBox="0 0 189.7 191.2">
  <path d="M120.9,186c5-1.4,10.7-3.5,16.8-6.6,3.1-1.6,5.9-3.2,8.5-4.9v-65.1l-16.1-8.5-6.2-3.3,7.1-3.7,15.2-8v-10.3h-28.3l-2.5,1.3-8.3,4.4-7.1,3.7h0s-33.3,0-33.3,0V29.6c2.1-.9,4.2-1.7,6.3-2.4,6.8-2.2,14.1-3.4,21.7-3.4s14.1,1.1,20.6,3c1.9.6,3.7,1.2,5.5,1.9v9.9h25.3V15.1c-7.7-5-16.3-8.9-25.3-11.5-1.8-.5-3.6-1-5.5-1.4-6.6-1.5-13.5-2.2-20.6-2.2s-1,0-1.5,0c-.4,0-.9,0-1.3,0-6.5,0-12.6,1-18.7,2.4h-.2c-2.1.6-4.2,1.1-6.3,1.8-1.8.6-3.6,1.2-5.3,1.8,0,0,0,0,0,0-6.5,2.4-12.6,5.5-18.3,9.3-.5.3-1,.6-1.5,1v102.5h25.1v-8.9h35l5.7,3,7.9,4.1,3.3,1.7,2.2,1.2v40.9c-1.8.7-3.6,1.4-5.5,1.9-6.5,2-13.4,3-20.6,3s-14.9-1.2-21.7-3.4c-2.1-.7-4.3-1.5-6.3-2.4v-4.8h-25.1v18.2c2.7,2.2,5.5,4.2,8.4,6,5.2,3.2,10.8,5.8,16.7,7.8,2.1.7,4.2,1.3,6.3,1.8,1.3.3,3.6.8,6.6,1.3,0,0,6.1.9,12.4,1,12.8,0,27-4.6,28.9-5.2Z"/>
  <path d="M35.7,109.9v-24.6h-11.2c.4-3.2,1.1-6.4,2-9.5.5-1.9,1.1-3.8,1.8-5.7h7.4v-25.6H14.4c-4.9,7.8-8.7,16.4-11.2,25.6-1.3,4.9-2.3,10-2.8,15.2-.3,3.1-.5,6.3-.5,9.6,0,5.1.4,10.2,1.2,15.1h34.5Z"/>
  <path d="M162,117.8l-.4,1c-.7,2-1.5,3.9-2.4,5.8h-7.2v25.1h20.2c5.4-7.6,9.7-16,12.7-25.1.6-1.9,1.2-3.9,1.7-5.8.8-2.9,1.4-5.9,1.9-8.9.8-4.9,1.2-9.9,1.2-15.1s-.2-6.4-.5-9.6h-37.1v4.2l-5.5,2.9-.3.2-9,4.7,9,4.7.3.2,5.5,2.9v4.8h12.1c-.1.5-.2,1-.3,1.4-.5,2.2-1.1,4.3-1.9,6.5Z"/>
  <path d="M73.1,70.1h88.2c.7,1.8,1.3,3.7,1.8,5.7h24.6c-.4-1.9-.8-3.8-1.3-5.7-2.5-9.1-6.3-17.7-11.2-25.6h-102.1v25.6Z"/>
  <path d="M115.4,124.6H30.4c-.9-1.9-1.7-3.8-2.4-5.8H3c.5,2,1.1,3.9,1.7,5.8,3,9,7.3,17.5,12.7,25.1h97.9v-25.1Z"/>
</svg>